<svg width="133" height="161" viewBox="0 0 133 161" fill="none" xmlns="http://www.w3.org/2000/svg">
<path d="M52.2854 132.61C43.2854 141.81 33.1854 148.31 26.0854 159.31C25.5854 160.01 24.7854 160.11 23.9854 159.81C23.4854 160.31 22.5855 160.41 21.8855 159.71C13.6855 150.41 8.78542 139.61 5.28542 128.11C2.48542 118.91 -3.31456 104.61 2.48544 95.9098C6.28543 90.1098 13.9854 89.8098 20.0854 93.1098C26.8854 96.8098 29.4854 103.61 30.7854 110.51C33.4854 105.51 37.4854 101.21 43.7854 100.31C51.0854 99.3098 57.4854 104.21 59.5854 110.91C62.0854 119.11 57.6854 127.01 52.2854 132.61ZM54.8855 110.31C51.7855 104.11 44.1854 102.81 38.9854 106.61C34.8854 109.51 33.0854 114.21 31.4854 118.71C30.8854 120.51 27.7854 120.01 27.5854 118.11C26.6854 110.11 25.5854 99.4098 16.5854 95.8098C13.2854 94.0098 10.7854 94.9098 8.78542 98.3098C4.68542 99.8098 3.18546 102.51 4.38546 106.61C4.58546 110.21 5.58546 113.81 6.38546 117.31C9.68546 131.31 14.4854 144.71 22.9854 156.71C29.2854 146.31 38.0854 140.01 46.9854 131.91C52.7854 126.71 58.9855 118.51 54.8855 110.31Z" fill="#1F1F1F"/>
<path d="M73.5957 17.3766C76.6706 13.0841 77.8376 8.54785 83.8996 7.16875C89.7617 5.79553 94.7656 9.24963 98.2907 13.4476C99.7431 15.2056 102.701 13.7179 101.836 11.5424C99.2252 4.41622 91.105 0.453657 83.5377 1.67702C77.067 2.76804 68.5475 9.0216 69.4592 16.1979C69.7151 18.0911 72.4433 19.0112 73.5957 17.3766Z" fill="#1F1F1F"/>
<path d="M103.487 82.0722C110.622 81.7492 117.726 80.8615 124.798 79.4089C126.411 79.1074 126.992 76.8091 126.149 75.6517C122.225 69.9904 119.607 63.6196 117.264 57.092C116.59 55.1462 113.738 56.0827 114.204 58.1107C115.594 64.0535 117.883 69.5927 120.454 75.1162C114.77 76.0673 108.996 76.6692 103.274 76.9143C99.9513 77.0268 100.165 82.1847 103.487 82.0722Z" fill="#1F1F1F"/>
<path d="M92.3554 71.5665C95.1829 72.756 97.619 71.9842 100.643 71.6048C104.232 71.1943 107.747 70.7171 111.336 70.3065C113.164 70.064 114.259 68.0915 113.251 66.5183C109.743 60.6923 106.984 54.3293 103.542 48.4289C102.609 46.9224 99.9144 48.1334 100.647 49.8634C102.787 55.2692 105.55 60.428 107.757 65.7593C105.364 66.033 102.83 66.3144 100.437 66.5881C97.4796 66.893 94.6399 66.7665 92.2584 68.5267C91.1677 69.2951 91.0533 71.0718 92.3554 71.5665Z" fill="#1F1F1F"/>
</svg>
